<mxfile modified="2022-05-04T05:03:41.402Z" host="app.diagrams.net" agent="5.0 (Windows NT 10.0; Win64; x64) AppleWebKit/537.36 (KHTML, like Gecko) Chrome/100.0.4896.127 Safari/537.36 Edg/100.0.1185.50" etag="dlqNVJadb_HfzHe38ztw" compressed="false" version="17.5.0" type="google" pages="13">
  <diagram id="70dKCeAy9sxkz_ZRcfch" name="Group User Removal">
    <mxGraphModel dx="1422" dy="772" grid="1" gridSize="10" guides="1" tooltips="1" connect="1" arrows="1" fold="1" page="1" pageScale="1" pageWidth="827" pageHeight="1169" math="0" shadow="0">
      <root>
        <mxCell id="0DtRcsIO5FWj5AhN5kxe-0" />
        <mxCell id="0DtRcsIO5FWj5AhN5kxe-1" parent="0DtRcsIO5FWj5AhN5kxe-0" />
        <mxCell id="0DtRcsIO5FWj5AhN5kxe-2" value="Do Nothing" style="rounded=0;whiteSpace=wrap;html=1;" vertex="1" parent="0DtRcsIO5FWj5AhN5kxe-1">
          <mxGeometry x="310" y="160" width="120" height="60" as="geometry" />
        </mxCell>
      </root>
    </mxGraphModel>
  </diagram>
  <diagram id="gjwj-n8g23lRMpODjdfc" name="Resource Development Flow">
    <mxGraphModel grid="1" page="1" gridSize="10" guides="1" tooltips="1" connect="1" arrows="1" fold="1" pageScale="1" pageWidth="827" pageHeight="1169" math="0" shadow="0">
      <root>
        <mxCell id="AUaoJpLJfkaaXO4JiIhE-0" />
        <mxCell id="AUaoJpLJfkaaXO4JiIhE-1" parent="AUaoJpLJfkaaXO4JiIhE-0" />
      </root>
    </mxGraphModel>
  </diagram>
  <diagram id="x5bnLxw74-2B3LuyOFzn" name="Resource Publishing Flow">
    <mxGraphModel dx="1422" dy="772" grid="1" gridSize="10" guides="1" tooltips="1" connect="1" arrows="1" fold="1" page="1" pageScale="1" pageWidth="827" pageHeight="1169" math="0" shadow="0">
      <root>
        <mxCell id="lZgTQ74Grp9HVGyzpTg--0" />
        <mxCell id="lZgTQ74Grp9HVGyzpTg--1" parent="lZgTQ74Grp9HVGyzpTg--0" />
      </root>
    </mxGraphModel>
  </diagram>
  <diagram id="-VzuDn60ZSQSvOLmuMh5" name="Resource Review Reminder Flow">
    <mxGraphModel dx="1422" dy="772" grid="1" gridSize="10" guides="1" tooltips="1" connect="1" arrows="1" fold="1" page="1" pageScale="1" pageWidth="827" pageHeight="1169" math="0" shadow="0">
      <root>
        <mxCell id="IrNJYuLc1Ex7GeqEHPcg-0" />
        <mxCell id="IrNJYuLc1Ex7GeqEHPcg-1" parent="IrNJYuLc1Ex7GeqEHPcg-0" />
      </root>
    </mxGraphModel>
  </diagram>
  <diagram id="gxrjDwXW2HbjyvoJkiBa" name="Resource Removal FLow">
    <mxGraphModel dx="1422" dy="772" grid="1" gridSize="10" guides="1" tooltips="1" connect="1" arrows="1" fold="1" page="1" pageScale="1" pageWidth="827" pageHeight="1169" math="0" shadow="0">
      <root>
        <mxCell id="B086q6eENridP-JQeGaf-0" />
        <mxCell id="B086q6eENridP-JQeGaf-1" parent="B086q6eENridP-JQeGaf-0" />
      </root>
    </mxGraphModel>
  </diagram>
  <diagram id="9xJ33ovnytfFjtS4AW2j" name="Resource Discovery by Search Flow">
    <mxGraphModel dx="1422" dy="772" grid="1" gridSize="10" guides="1" tooltips="1" connect="1" arrows="1" fold="1" page="1" pageScale="1" pageWidth="827" pageHeight="1169" math="0" shadow="0">
      <root>
        <mxCell id="PnjPOVxD1_5C5c8ipsRs-0" />
        <mxCell id="PnjPOVxD1_5C5c8ipsRs-1" parent="PnjPOVxD1_5C5c8ipsRs-0" />
      </root>
    </mxGraphModel>
  </diagram>
  <diagram id="QP1hcJiVqBNf8x349uBX" name="Search Flow">
    <mxGraphModel dx="1422" dy="772" grid="1" gridSize="10" guides="1" tooltips="1" connect="1" arrows="1" fold="1" page="1" pageScale="1" pageWidth="827" pageHeight="1169" math="0" shadow="0">
      <root>
        <mxCell id="KtXpTCYdLM_WLK5KCubr-0" />
        <mxCell id="KtXpTCYdLM_WLK5KCubr-1" parent="KtXpTCYdLM_WLK5KCubr-0" />
      </root>
    </mxGraphModel>
  </diagram>
  <diagram id="07dbj2_QgzI3arVDw4Tl" name="Group Message Flow">
    <mxGraphModel dx="1422" dy="772" grid="1" gridSize="10" guides="1" tooltips="1" connect="1" arrows="1" fold="1" page="1" pageScale="1" pageWidth="827" pageHeight="1169" math="0" shadow="0">
      <root>
        <mxCell id="Lr2oCSE8k3YOvTfZpYph-0" />
        <mxCell id="Lr2oCSE8k3YOvTfZpYph-1" parent="Lr2oCSE8k3YOvTfZpYph-0" />
      </root>
    </mxGraphModel>
  </diagram>
  <diagram id="qvw3xeTiCWNAxkvGNuRT" name="Create Notifications Flow">
    <mxGraphModel dx="1422" dy="772" grid="1" gridSize="10" guides="1" tooltips="1" connect="1" arrows="1" fold="1" page="1" pageScale="1" pageWidth="827" pageHeight="1169" math="0" shadow="0">
      <root>
        <mxCell id="PEru6cvQjpHKf5IQvKmm-0" />
        <mxCell id="PEru6cvQjpHKf5IQvKmm-1" parent="PEru6cvQjpHKf5IQvKmm-0" />
      </root>
    </mxGraphModel>
  </diagram>
  <diagram id="fC6PCPY935aSs9ICpGKU" name="Update NOtifications Flow">
    <mxGraphModel dx="1422" dy="772" grid="1" gridSize="10" guides="1" tooltips="1" connect="1" arrows="1" fold="1" page="1" pageScale="1" pageWidth="827" pageHeight="1169" math="0" shadow="0">
      <root>
        <mxCell id="WaUD355DqDqPmgV-2tTz-0" />
        <mxCell id="WaUD355DqDqPmgV-2tTz-1" parent="WaUD355DqDqPmgV-2tTz-0" />
      </root>
    </mxGraphModel>
  </diagram>
  <diagram id="-XXit3hftkdUd4FJHng6" name="Review Readers of Notifications Flow">
    <mxGraphModel dx="1422" dy="772" grid="1" gridSize="10" guides="1" tooltips="1" connect="1" arrows="1" fold="1" page="1" pageScale="1" pageWidth="827" pageHeight="1169" math="0" shadow="0">
      <root>
        <mxCell id="QJ4cGZEjN0hLP7aQR5XE-0" />
        <mxCell id="QJ4cGZEjN0hLP7aQR5XE-1" parent="QJ4cGZEjN0hLP7aQR5XE-0" />
      </root>
    </mxGraphModel>
  </diagram>
  <diagram id="ePtVZlfejVHj6_T26eB1" name="Remove Notification Flow">
    <mxGraphModel dx="1422" dy="772" grid="1" gridSize="10" guides="1" tooltips="1" connect="1" arrows="1" fold="1" page="1" pageScale="1" pageWidth="827" pageHeight="1169" math="0" shadow="0">
      <root>
        <mxCell id="ScTukcxaSsJ8jHcBXgke-0" />
        <mxCell id="ScTukcxaSsJ8jHcBXgke-1" parent="ScTukcxaSsJ8jHcBXgke-0" />
      </root>
    </mxGraphModel>
  </diagram>
  <diagram id="IAVeqVmkexJEwEygBm4C" name="Page-17">
    <mxGraphModel dx="1422" dy="772" grid="1" gridSize="10" guides="1" tooltips="1" connect="1" arrows="1" fold="1" page="1" pageScale="1" pageWidth="827" pageHeight="1169" math="0" shadow="0">
      <root>
        <mxCell id="GR1_kimH_O5IAxhUCKbP-0" />
        <mxCell id="GR1_kimH_O5IAxhUCKbP-1" parent="GR1_kimH_O5IAxhUCKbP-0" />
      </root>
    </mxGraphModel>
  </diagram>
</mxfile>
